# xmcd CD database file
#
# Track frame offsets:
#	150
#	24911
#	46382
#	69233
#	90026
#	115920
#	138630
#	162484
#	185358
#	206854
#	229531
#	249089
#	268983
#	289870
#
# Disc length: 4185 seconds
#
# Revision: 0
# Processed by: cddbd v1.5.2PL0 Copyright (c) Steve Scherf et al.
# Submitted via: CDex 1.70beta2
#
DISCID=be10570e
DTITLE=The Bahama Soul Club - Bossa Nova Just Smells Funky - REMIXED
DYEAR=2011
DGENRE=Jazz
TTITLE0=Afro Shigida feat. Kojato - Suonho RMX
TTITLE1=Bossa Bop feat. Pat Appleton - Valique RMX
TTITLE2=Experience In Jazz feat. Bella Wagner - Club Des Belugas RMX
TTITLE3=Tangossa feat. Pat Appleton - Acusmatic Group RMX 
TTITLE4=Serious_Soul feat. John Turrell - Valique RMX
TTITLE5=Junkie feat. Sitzka - Quincy Jointz RMX
TTITLE6=Kings's Wig - Renegades Of Jazz RMX
TTITLE7=Experience In Jazz feat. Bella Wagner - MopMop RMX
TTITLE8=Serious Soul feat. John Turrell - Mash and Munkee RMX
TTITLE9=Afro Shigida feat. Kojato - Quincy Jointz RMX
TTITLE10=Tangossa feat. Pat Appleton - DJ Kinski RMX
TTITLE11=Junkie feat. Sitzka - Tape Five RMX
TTITLE12=Bossa Bop feat. Pat Appleton - Minimatic RMX
TTITLE13=Bossa Corcovado feat. A Secret - Dr Rubberfunk RMX
EXTD=YEAR: 2011
EXTT0=
EXTT1=
EXTT2=
EXTT3=
EXTT4=
EXTT5=
EXTT6=
EXTT7=
EXTT8=
EXTT9=
EXTT10=
EXTT11=
EXTT12=
EXTT13=
PLAYORDER=
